<svg xmlns="http://www.w3.org/2000/svg" width="432" height="80" viewBox="0 0 432 80" role="img" aria-labelledby="hf-title">
<title id="hf-title">Helix Foundry</title>
<g fill="#ecebe4">
<path d="M12.5 37.05L12.5 62.44L1.31 62.44L1.31 4.26L12.22 4.26L12.22 26.36L12.73 26.36Q14.23 22.59 17.49 20.41Q20.75 18.24 25.74 18.24Q30.29 18.24 33.67 20.18Q37.06 22.12 38.94 25.79Q40.81 29.46 40.8 34.66L40.8 62.44L29.6 62.44L29.6 36.53Q29.62 32.32 27.46 29.96Q25.3 27.61 21.42 27.61Q18.82 27.61 16.81 28.73Q14.79 29.84 13.65 31.95Q12.52 34.06 12.5 37.05ZM66.63 63.3Q59.99 63.3 55.19 60.55Q50.38 57.81 47.8 52.77Q45.21 47.73 45.21 40.85Q45.21 34.12 47.81 29.03Q50.4 23.93 55.09 21.09Q59.79 18.24 66.12 18.24Q70.3 18.24 73.96 19.57Q77.63 20.91 80.41 23.64Q83.2 26.36 84.77 30.53Q86.35 34.69 86.35 40.34L86.35 43.58L50.04 43.58L50.04 36.36L75.73 36.36Q75.71 33.58 74.52 31.41Q73.32 29.25 71.21 28Q69.09 26.76 66.29 26.76Q63.34 26.76 61.09 28.15Q58.84 29.55 57.58 31.83Q56.32 34.12 56.29 36.88L56.29 43.47Q56.29 46.99 57.59 49.52Q58.89 52.06 61.25 53.42Q63.61 54.77 66.8 54.77Q68.94 54.77 70.68 54.17Q72.43 53.57 73.69 52.37Q74.96 51.18 75.61 49.43L86.01 50.34Q85.13 54.26 82.54 57.17Q79.96 60.09 75.92 61.69Q71.88 63.3 66.63 63.3ZM102.07 4.26L102.07 62.44L90.88 62.44L90.88 4.26L102.07 4.26ZM108.42 62.44L108.42 18.81L119.62 18.81L119.62 62.44L108.42 62.44ZM114.06 12.9Q111.48 12.9 109.64 11.18Q107.8 9.46 107.8 7.04Q107.8 4.63 109.64 2.91Q111.48 1.19 114.05 1.19Q116.63 1.19 118.47 2.91Q120.3 4.63 120.3 7.05Q120.3 9.46 118.47 11.18Q116.63 12.9 114.06 12.9ZM135.23 18.81L143.64 34.49L152.22 18.81L163.86 18.81L150.97 40.63L164.15 62.44L152.56 62.44L143.64 47.05L134.83 62.44L123.12 62.44L136.25 40.63L123.52 18.81L135.23 18.81Z"/>
<path d="M188.17 18.81L188.17 24.49L164.64 24.49L164.64 18.81L188.17 18.81ZM171.69 62.44L171.69 12.78Q171.69 9.03 173.45 6.53Q175.21 4.03 178.02 2.78Q180.84 1.53 183.96 1.53Q186.43 1.53 188 1.93Q189.56 2.33 190.33 2.67L188.39 8.47Q187.88 8.3 186.99 8.04Q186.09 7.78 184.64 7.78Q181.32 7.78 179.86 9.46Q178.39 11.14 178.39 14.38L178.39 62.44L171.69 62.44ZM209.74 63.35Q203.83 63.35 199.39 60.54Q194.94 57.73 192.46 52.67Q189.97 47.61 189.97 40.85Q189.97 34.03 192.46 28.95Q194.94 23.86 199.39 21.05Q203.83 18.24 209.74 18.24Q215.65 18.24 220.1 21.05Q224.54 23.86 227.03 28.95Q229.52 34.03 229.52 40.85Q229.52 47.61 227.03 52.67Q224.54 57.73 220.1 60.54Q215.65 63.35 209.74 63.35ZM209.74 57.33Q214.23 57.33 217.13 55.03Q220.03 52.73 221.42 48.98Q222.81 45.23 222.81 40.85Q222.81 36.48 221.42 32.7Q220.03 28.92 217.13 26.59Q214.23 24.26 209.74 24.26Q205.25 24.26 202.36 26.59Q199.46 28.92 198.07 32.7Q196.67 36.48 196.67 40.85Q196.67 45.23 198.07 48.98Q199.46 52.73 202.36 55.03Q205.25 57.33 209.74 57.33ZM263.48 44.6L263.48 18.81L270.18 18.81L270.18 62.44L263.48 62.44L263.48 55.06L263.02 55.06Q261.49 58.38 258.25 60.7Q255.01 63.01 250.07 63.01Q245.98 63.01 242.8 61.21Q239.61 59.4 237.8 55.75Q235.98 52.1 235.98 46.53L235.98 18.81L242.68 18.81L242.68 46.08Q242.68 50.85 245.37 53.69Q248.05 56.53 252.23 56.53Q254.73 56.53 257.33 55.26Q259.93 53.98 261.7 51.34Q263.48 48.69 263.48 44.6ZM285.4 36.19L285.4 62.44L278.69 62.44L278.69 18.81L285.17 18.81L285.17 25.63L285.74 25.63Q287.27 22.3 290.4 20.27Q293.52 18.24 298.46 18.24Q302.9 18.24 306.22 20.04Q309.54 21.85 311.39 25.5Q313.24 29.15 313.24 34.72L313.24 62.44L306.53 62.44L306.53 35.17Q306.53 30.03 303.86 27.14Q301.19 24.26 296.53 24.26Q293.32 24.26 290.81 25.65Q288.29 27.05 286.84 29.72Q285.4 32.39 285.4 36.19ZM338.22 63.35Q332.77 63.35 328.59 60.58Q324.41 57.81 322.06 52.74Q319.7 47.67 319.7 40.74Q319.7 33.86 322.06 28.81Q324.41 23.75 328.62 20.99Q332.82 18.24 338.33 18.24Q342.6 18.24 345.08 19.64Q347.57 21.05 348.89 22.83Q350.21 24.6 350.95 25.74L351.52 25.74L351.52 4.26L358.22 4.26L358.22 62.44L351.74 62.44L351.74 55.74L350.95 55.74Q350.21 56.93 348.85 58.74Q347.48 60.54 344.95 61.95Q342.43 63.35 338.22 63.35ZM339.13 57.33Q343.16 57.33 345.95 55.21Q348.73 53.1 350.18 49.33Q351.63 45.57 351.63 40.63Q351.63 35.74 350.21 32.06Q348.79 28.38 346.01 26.32Q343.22 24.26 339.13 24.26Q334.87 24.26 332.04 26.43Q329.22 28.61 327.81 32.32Q326.4 36.02 326.4 40.63Q326.4 45.28 327.84 49.08Q329.27 52.87 332.1 55.1Q334.93 57.33 339.13 57.33ZM367.64 62.44L367.64 18.81L374.12 18.81L374.12 25.4L374.57 25.4Q375.76 22.16 378.89 20.14Q382.01 18.13 385.93 18.13Q386.67 18.13 387.78 18.15Q388.89 18.18 389.46 18.24L389.46 25.06Q389.12 24.97 387.91 24.79Q386.7 24.6 385.37 24.6Q382.18 24.6 379.7 25.92Q377.21 27.24 375.78 29.56Q374.34 31.88 374.34 34.83L374.34 62.44L367.64 62.44ZM399.33 78.81Q397.62 78.81 396.29 78.54Q394.95 78.27 394.44 78.01L396.15 72.1Q398.59 72.73 400.46 72.56Q402.34 72.39 403.8 70.89Q405.27 69.4 406.49 66.08L407.74 62.67L391.6 18.81L398.87 18.81L410.92 53.58L411.37 53.58L423.42 18.81L430.69 18.81L412.17 68.81Q410.92 72.19 409.07 74.42Q407.23 76.65 404.8 77.73Q402.37 78.81 399.33 78.81Z"/>
</g>
</svg>
